<?xml version="1.0" encoding="UTF-8"?>
<svg id="Layer_1" data-name="Layer 1" xmlns="http://www.w3.org/2000/svg" viewBox="0 0 16 16">
  <g>
    <path d="M1.27,8.73v5.53c0,.28,.23,.52,.52,.52h3.89v-6.56H1.78c-.28,0-.52,.23-.52,.52Z" style="fill: #021d49;"/>
    <path d="M7.61,8.21v1.65c.44-.67,1.16-1.15,1.98-1.27,.14-.02,.28-.03,.42-.03,.67,0,1.31,.24,1.81,.64,.07-.05,.13-.1,.2-.15v-.33c0-.28-.23-.52-.52-.52h-3.89Z" style="fill: #021d49;"/>
    <path d="M8.21,13.71l-.07-.07c-.08-.09-.17-.19-.23-.27-.11-.12-.21-.25-.3-.38v1.78h1.62c-.39-.38-.76-.77-1.02-1.06Z" style="fill: #021d49;"/>
    <path d="M15.43,11.09c-.13-.77-.76-1.37-1.53-1.48-.86-.12-1.63,.36-1.95,1.08-.03,.06-.08,.09-.13,.09s-.1-.03-.13-.09c-.32-.72-1.09-1.2-1.95-1.08-.77,.11-1.4,.72-1.53,1.48-.11,.62,.09,1.19,.48,1.59,.08,.1,.21,.24,.3,.35,.5,.57,1.58,1.61,2.28,2.24,.13,.12,.31,.2,.51,.21,.02,0,.07,0,.1,0,.19,0,.38-.09,.51-.21,.69-.62,1.77-1.67,2.28-2.24,.09-.11,.22-.25,.3-.35,.38-.4,.58-.97,.48-1.59Z" style="fill: #021d49;"/>
  </g>
  <g>
    <path d="M.54,5.44v1.62c0,.29,.23,.52,.52,.52H5.67v-2.65s-4.61,0-4.61,0c-.29,0-.52,.23-.52,.52Z" style="fill: #021d49;"/>
    <path d="M12.21,4.93H7.59v2.65h4.62c.28,0,.52-.23,.52-.52v-1.62c0-.29-.23-.52-.52-.52Z" style="fill: #021d49;"/>
    <path d="M2.69,4.34c.06,.03,.15,.09,.43,.09h6.97c.3,0,.42-.06,.49-.1,.46-.27,.75-.84,.75-1.57,0-.54-.17-1.08-.47-1.48-.37-.49-.91-.76-1.53-.76-.05,0-.1,0-.16,0-1.63,.11-2.29,1.66-2.55,2.65-.26-1-.92-2.54-2.55-2.65-.05,0-.1,0-.16,0-.62,0-1.16,.27-1.53,.76-.3,.4-.47,.94-.47,1.48,0,.74,.3,1.31,.77,1.58ZM9.23,1.45s.06,0,.09,0c.33,0,.59,.13,.79,.39,.18,.24,.29,.58,.29,.93,0,.28-.1,.82-.47,.82h-2.44c.17-.75,.62-2.06,1.75-2.13Zm-6.1,.39c.19-.26,.46-.39,.79-.39,.03,0,.06,0,.09,0,1.13,.08,1.58,1.39,1.75,2.13H3.32c-.37,0-.47-.54-.47-.82,0-.35,.1-.68,.29-.93Z" style="fill: #021d49;"/>
  </g>
</svg>