<?xml version="1.0" encoding="UTF-8"?>
<svg id="Layer_1" data-name="Layer 1" xmlns="http://www.w3.org/2000/svg" viewBox="0 0 43.77 13.59">
  <g>
    <path d="M19.94,12.44c0,.17,.08,.26,.23,.26,.13,0,.28-.06,.44-.18,.16-.12,.3-.28,.43-.47l.08,.04c-.12,.22-.28,.39-.47,.53-.19,.14-.38,.21-.55,.21-.11,0-.2-.03-.26-.1-.06-.07-.1-.16-.1-.28,0-.17,.06-.32,.18-.44,.12-.12,.26-.18,.42-.18,.08,0,.14,.02,.19,.06,.05,.04,.07,.09,.07,.15,0,.11-.07,.2-.2,.28-.13,.08-.29,.12-.46,.12Zm0-.08c.13,0,.24-.04,.33-.11,.09-.06,.14-.14,.14-.22,0-.08-.04-.11-.11-.11-.08,0-.16,.04-.23,.13-.07,.09-.12,.19-.13,.31Z" style="fill: #fff;"/>
    <path d="M21.45,12.5s.03,.09,.03,.13c0,.09-.04,.17-.12,.23-.08,.07-.17,.1-.28,.1-.06,0-.12-.02-.16-.05-.04-.03-.07-.07-.07-.11,0-.05,.03-.09,.09-.14,.06-.05,.16-.1,.3-.17l-.07-.11c-.09-.14-.14-.25-.14-.32,0-.11,.07-.2,.21-.27,.08,.03,.13,.07,.13,.12,0,.07-.05,.13-.16,.19l.1,.18,.08,.14c.12-.07,.21-.12,.27-.17,.06-.05,.14-.12,.23-.22l.08,.04c-.13,.17-.31,.31-.52,.42Zm-.16,.08c-.18,.09-.27,.16-.27,.22,0,.05,.04,.07,.11,.07,.05,0,.1-.02,.13-.05,.03-.03,.05-.08,.05-.14,0-.03,0-.07-.02-.1Z" style="fill: #fff;"/>
    <path d="M22.59,12.76l-.07,.33c-.02,.07-.02,.14-.02,.19,0,.03,0,.07,.02,.09-.06,.02-.11,.03-.14,.03-.05,0-.08-.03-.08-.08,0-.04,.01-.11,.03-.21l.27-1.29c-.05,.01-.1,.02-.14,.02-.05,0-.09-.01-.12-.04-.03-.02-.05-.07-.06-.14,.05,.03,.11,.04,.21,.04,.11,0,.22-.02,.33-.06l-.07,.34c.11-.1,.22-.14,.33-.14,.1,0,.18,.04,.25,.11,.06,.07,.1,.16,.1,.26,0,.17-.06,.31-.18,.43-.12,.12-.26,.18-.43,.18-.09,0-.16-.02-.22-.05Zm.03-.14c.06,.07,.14,.1,.23,.1,.11,0,.2-.04,.28-.13,.08-.09,.11-.19,.11-.32,0-.09-.02-.16-.06-.22-.04-.06-.1-.08-.17-.08-.09,0-.18,.05-.28,.14l-.11,.51Z" style="fill: #fff;"/>
    <path d="M24.41,12.27c-.08,.16-.18,.29-.29,.4-.12,.11-.22,.16-.3,.16-.07,0-.12-.03-.16-.08-.04-.06-.06-.13-.06-.22,0-.18,.06-.35,.18-.49,.12-.14,.25-.21,.41-.21,.09,0,.19,.03,.3,.08,.02-.05,.08-.08,.2-.08,0,0,.02,0,.04,0-.04,.05-.06,.12-.08,.21l-.02,.07c-.02,.08-.03,.18-.03,.29,0,.13,.03,.19,.09,.19,.07,0,.16-.05,.27-.16,.12-.11,.23-.24,.34-.4l.07,.05c-.12,.19-.25,.36-.39,.49-.15,.13-.27,.19-.38,.19-.13,0-.2-.11-.2-.32,0-.04,0-.1,0-.18Zm.04-.21c-.13-.08-.24-.12-.32-.12-.09,0-.17,.05-.24,.16-.07,.11-.1,.24-.1,.38,0,.12,.04,.18,.12,.18,.09,0,.26-.18,.51-.55,0,0,.02-.02,.04-.05Z" style="fill: #fff;"/>
    <path d="M25.37,12.81s-.08,.03-.1,.03c-.06,0-.1-.03-.1-.08,0-.03,.01-.09,.03-.2l.05-.22c.03-.13,.04-.23,.04-.29,0-.03-.01-.06-.03-.09,.06-.02,.12-.03,.16-.03,.04,0,.07,.03,.07,.08,0,.03-.01,.12-.05,.25l-.05,.26c.12-.22,.23-.38,.35-.5,.12-.12,.23-.18,.32-.18,.03,0,.06,0,.09,.03,.03,.02,.04,.04,.04,.07,0,.04-.05,.1-.14,.16-.02-.05-.06-.07-.1-.07-.08,0-.18,.08-.3,.24-.07,.1-.14,.2-.2,.31-.06,.11-.08,.18-.08,.22h0Z" style="fill: #fff;"/>
    <path d="M26.91,12.46s.03,.05,.03,.08c0,.06-.05,.12-.15,.19-.1,.07-.2,.1-.28,.1-.08,0-.14-.03-.18-.09-.05-.06-.07-.14-.07-.24,0-.11,.03-.27,.09-.47l.04-.15h-.16c-.07,0-.12,0-.16,.03,.04-.06,.07-.1,.09-.12,.02-.02,.06-.02,.12-.02h.14l.02-.06c.03-.09,.06-.15,.1-.19,.04-.03,.1-.05,.18-.05,0,0,.02,0,.04,0-.05,.06-.1,.16-.15,.3h.49c.09,0,.15-.01,.2-.03-.02,.06-.04,.1-.06,.12-.03,.02-.07,.03-.14,.03h-.52s-.01,.03-.01,.04c-.08,.24-.11,.42-.11,.55,0,.14,.05,.2,.15,.2,.05,0,.11-.02,.18-.06,.06-.04,.11-.09,.13-.15Z" style="fill: #fff;"/>
    <path d="M27.26,12.44c0,.17,.08,.26,.23,.26,.13,0,.28-.06,.44-.18,.16-.12,.3-.28,.43-.47l.08,.04c-.12,.22-.28,.39-.47,.53-.19,.14-.38,.21-.55,.21-.11,0-.2-.03-.26-.1-.06-.07-.1-.16-.1-.28,0-.17,.06-.32,.18-.44,.12-.12,.26-.18,.42-.18,.08,0,.14,.02,.19,.06,.05,.04,.07,.09,.07,.15,0,.11-.07,.2-.2,.28-.13,.08-.29,.12-.46,.12Zm0-.08c.13,0,.24-.04,.33-.11,.09-.06,.14-.14,.14-.22,0-.08-.04-.11-.11-.11-.08,0-.16,.04-.23,.13-.07,.09-.12,.19-.13,.31Z" style="fill: #fff;"/>
    <path d="M29.68,12.3c-.1,.17-.2,.3-.3,.39-.11,.1-.2,.15-.28,.15-.07,0-.12-.03-.16-.08-.04-.05-.06-.13-.06-.22,0-.19,.06-.35,.18-.49,.12-.14,.25-.21,.41-.21,.09,0,.19,.03,.3,.08l.1-.47c-.06,.01-.1,.02-.14,.02-.05,0-.09-.01-.12-.04-.03-.03-.05-.07-.06-.14,.04,.03,.11,.04,.21,.04,.11,0,.22-.02,.33-.06l-.2,.97c-.02,.11-.03,.2-.03,.28,0,.1,.03,.15,.09,.15s.16-.07,.3-.2c.14-.13,.25-.27,.35-.41l.07,.05c-.11,.19-.25,.36-.41,.51-.16,.15-.3,.23-.39,.23-.12,0-.19-.1-.19-.29,0-.08,0-.16,.02-.25Zm.05-.23c-.13-.08-.24-.12-.32-.12-.09,0-.17,.05-.24,.16-.07,.11-.1,.24-.1,.38,0,.12,.04,.18,.12,.18,.09,0,.26-.18,.51-.55,0,0,.02-.02,.04-.05Z" style="fill: #fff;"/>
    <path d="M30.61,12.44c0,.17,.08,.26,.23,.26,.13,0,.28-.06,.44-.18,.16-.12,.31-.28,.43-.47l.08,.04c-.12,.22-.28,.39-.47,.53-.19,.14-.38,.21-.55,.21-.11,0-.2-.03-.26-.1-.06-.07-.1-.16-.1-.28,0-.17,.06-.32,.18-.44,.12-.12,.26-.18,.42-.18,.08,0,.14,.02,.19,.06,.05,.04,.07,.09,.07,.15,0,.11-.07,.2-.2,.28-.13,.08-.29,.12-.46,.12Zm0-.08c.13,0,.24-.04,.33-.11,.09-.06,.14-.14,.14-.22,0-.08-.03-.11-.1-.11-.09,0-.16,.04-.23,.13-.07,.09-.12,.19-.13,.31Z" style="fill: #fff;"/>
    <path d="M32.55,12.5c.22-.45,.42-.67,.59-.67,.08,0,.11,.05,.11,.15,0,.04-.02,.14-.05,.3l-.06,.27c.11-.22,.22-.39,.34-.52,.12-.13,.22-.2,.3-.2,.09,0,.14,.05,.14,.16,0,.04-.01,.12-.04,.26l-.03,.14c-.02,.08-.03,.14-.03,.18,0,.07,.03,.11,.08,.11,.12,0,.3-.21,.55-.63l.08,.04c-.27,.5-.5,.74-.7,.74-.13,0-.19-.08-.19-.24,0-.05,.01-.14,.04-.25l.03-.12c.02-.08,.03-.13,.03-.15,0-.03-.01-.04-.04-.04-.07,0-.19,.13-.36,.38-.16,.23-.23,.36-.23,.39,0,0,0,.01,0,.02,0,0-.02,0-.04,.01,0,0-.02,0-.04,0-.06,0-.09-.03-.09-.08,0-.02,.01-.06,.03-.14,0-.03,.01-.06,.02-.09l.04-.19c.03-.13,.04-.22,.04-.24,0-.04-.02-.06-.04-.06-.07,0-.17,.11-.3,.34-.13,.22-.19,.36-.19,.4,0,.01,0,.02,.01,.04-.03,.01-.06,.02-.09,.02-.06,0-.1-.03-.1-.1,0,0,0-.09,.03-.26l.02-.19c0-.07,.01-.13,.01-.18,0-.07-.01-.12-.05-.15,.07-.02,.12-.04,.15-.04,.05,0,.08,.03,.08,.09,0,.02,0,.1-.02,.24l-.03,.25Z" style="fill: #fff;"/>
    <path d="M35.42,12.09c-.14,.23-.28,.41-.42,.55-.14,.13-.27,.2-.38,.2-.07,0-.12-.02-.17-.06-.04-.04-.06-.1-.06-.17,0-.03,0-.07,.02-.13l.02-.1c.03-.14,.05-.24,.05-.29,0-.03-.01-.06-.03-.08,.08-.02,.13-.03,.15-.03,.05,0,.07,.03,.07,.09,0,.05,0,.11-.03,.19l-.04,.17c-.02,.08-.03,.14-.03,.16,0,.07,.03,.11,.1,.11,.08,0,.18-.06,.31-.19,.13-.12,.25-.28,.37-.47l.08,.04Zm-.83-.44h.01s.1-.02,.18-.06c.08-.04,.14-.08,.18-.12-.03,.08-.08,.15-.15,.2-.1,.08-.18,.13-.21,.13-.03,0-.04-.01-.04-.04,0-.04,0-.08,.02-.11Z" style="fill: #fff;"/>
    <path d="M36.13,12.83c.01-.05,.02-.1,.02-.13,0-.14-.03-.3-.1-.48-.07-.18-.14-.31-.23-.4,.05-.03,.1-.04,.14-.04,.07,0,.14,.08,.21,.25,.07,.17,.12,.37,.15,.61,.11-.13,.2-.26,.27-.4,.07-.14,.11-.26,.12-.36,.09,.04,.14,.08,.14,.12,0,.04-.04,.13-.13,.27-.09,.14-.18,.27-.29,.4-.05,.06-.09,.1-.13,.12-.03,.02-.09,.03-.17,.04Z" style="fill: #fff;"/>
    <path d="M38.07,12.09c-.14,.23-.28,.41-.42,.55-.14,.13-.27,.2-.38,.2-.07,0-.13-.02-.17-.06-.04-.04-.06-.1-.06-.17,0-.03,0-.07,.02-.13l.02-.1c.03-.14,.05-.24,.05-.29,0-.03-.01-.06-.03-.08,.08-.02,.13-.03,.15-.03,.05,0,.07,.03,.07,.09,0,.05,0,.11-.03,.19l-.04,.17c-.02,.08-.03,.14-.03,.16,0,.07,.03,.11,.1,.11,.08,0,.18-.06,.31-.19,.13-.12,.25-.28,.37-.47l.08,.04Zm-.83-.44h.01s.1-.02,.18-.06c.08-.04,.14-.08,.18-.12-.03,.08-.07,.15-.14,.2-.11,.08-.18,.13-.21,.13-.02,0-.04-.01-.04-.04,0-.04,0-.08,.02-.11Z" style="fill: #fff;"/>
    <path d="M38.63,12.3c-.1,.17-.2,.3-.3,.39-.11,.1-.2,.15-.28,.15-.07,0-.12-.03-.16-.08-.04-.05-.06-.13-.06-.22,0-.19,.06-.35,.18-.49,.12-.14,.25-.21,.41-.21,.09,0,.19,.03,.3,.08l.1-.47c-.06,.01-.1,.02-.14,.02-.05,0-.09-.01-.12-.04-.03-.03-.05-.07-.06-.14,.04,.03,.11,.04,.21,.04,.11,0,.22-.02,.33-.06l-.2,.97c-.02,.11-.03,.2-.03,.28,0,.1,.03,.15,.09,.15s.16-.07,.3-.2c.14-.13,.25-.27,.35-.41l.08,.05c-.11,.19-.25,.36-.41,.51-.16,.15-.3,.23-.39,.23-.12,0-.19-.1-.19-.29,0-.08,0-.16,.02-.25Zm.05-.23c-.13-.08-.24-.12-.32-.12-.09,0-.17,.05-.24,.16-.07,.11-.1,.24-.1,.38,0,.12,.04,.18,.12,.18,.09,0,.26-.18,.51-.55,0,0,.02-.02,.03-.05Z" style="fill: #fff;"/>
    <path d="M40.17,12.27c-.08,.16-.18,.29-.29,.4-.12,.11-.22,.16-.3,.16-.07,0-.12-.03-.16-.08-.04-.06-.06-.13-.06-.22,0-.18,.06-.35,.18-.49,.12-.14,.25-.21,.41-.21,.09,0,.19,.03,.3,.08,.02-.05,.08-.08,.2-.08,0,0,.02,0,.04,0-.04,.05-.06,.12-.08,.21l-.02,.07c-.02,.08-.03,.18-.03,.29,0,.13,.03,.19,.09,.19,.07,0,.16-.05,.27-.16,.12-.11,.23-.24,.34-.4l.07,.05c-.12,.19-.25,.36-.39,.49-.15,.13-.27,.19-.38,.19-.13,0-.2-.11-.2-.32,0-.04,0-.1,0-.18Zm.04-.21c-.13-.08-.24-.12-.32-.12-.09,0-.17,.05-.24,.16-.07,.11-.1,.24-.1,.38,0,.12,.04,.18,.12,.18,.09,0,.26-.18,.51-.55,0,0,.02-.02,.04-.05Z" style="fill: #fff;"/>
  </g>
  <g>
    <path d="M.65,1.1h.68v6.94s0,.5,.45,.5h3.65v.75H1.46s-.81,0-.81-.9,0-7.29,0-7.29H.65Z" style="fill: #fff; fill-rule: evenodd;"/>
    <path d="M1.59,1.1h.68V7.05s-.05,.46,.39,.46c2.18,0,2.76,0,2.76,0v.74H1.99s-.4-.03-.4-.44c0-.29,0-6.71,0-6.71h0Z" style="fill: #fff; fill-rule: evenodd;"/>
    <path d="M2.52,1.1h.68V6.13s-.04,.34,.29,.34h1.94v.75H2.81s-.29-.06-.29-.41V1.1h0Z" style="fill: #fff; fill-rule: evenodd;"/>
    <path d="M3.46,1.1h.68V5.16s-.04,.29,.25,.29h1.03v.74h-1.57c-.28,0-.4-.08-.4-.37V1.1h0Z" style="fill: #fff; fill-rule: evenodd;"/>
    <path d="M9.16,9.28h-.68V2.34s0-.5-.44-.5c-.42,0-3.65,0-3.65,0v-.75h3.97s.81,0,.81,.9c0,.88,0,7.29,0,7.29h0Z" style="fill: #fff; fill-rule: evenodd;"/>
    <path d="M8.22,9.28h-.68V3.33s.05-.46-.39-.46c-2.18,0-2.76,0-2.76,0v-.74s3.43,0,3.43,0c0,0,.4,.03,.4,.44,0,.29,0,6.71,0,6.71h0Z" style="fill: #fff; fill-rule: evenodd;"/>
    <path d="M7.29,9.28h-.68s0-5.03,0-5.03c0,0,.04-.34-.28-.34-.58,0-1.94,0-1.94,0v-.75s2.61,0,2.61,0c0,0,.29,.06,.29,.4,0,.32,0,5.72,0,5.72h0Z" style="fill: #fff; fill-rule: evenodd;"/>
    <path d="M6.35,9.28h-.68V5.22s.04-.29-.25-.29h-1.03v-.74h1.57c.28,0,.4,.09,.4,.37,0,.31,0,4.72,0,4.72h0Z" style="fill: #fff; fill-rule: evenodd;"/>
    <polygon points="16.05 2.79 16.74 2.79 16.74 3.57 16.05 3.57 16.05 2.79 16.05 2.79" style="fill: #fff; fill-rule: evenodd;"/>
    <polygon points="16.05 4.49 16.74 4.49 16.74 9.29 16.05 9.29 16.05 4.49 16.05 4.49" style="fill: #fff; fill-rule: evenodd;"/>
    <polygon points="40.66 2.78 41.35 2.78 41.35 9.29 40.66 9.29 40.66 2.78 40.66 2.78" style="fill: #fff; fill-rule: evenodd;"/>
    <polygon points="20.62 4.49 19.22 8.35 17.82 4.49 17.03 4.49 18.77 9.29 19.67 9.29 21.41 4.49 20.62 4.49 20.62 4.49" style="fill: #fff; fill-rule: evenodd;"/>
    <path d="M14.09,8.52c-.23,0-.41-.21-.41-.46V2.79h-.7v5.4c0,.61,.44,1.1,.99,1.1h1.82v-.76h-1.71Z" style="fill: #fff; fill-rule: evenodd;"/>
    <path d="M27.27,5.26c-.23,0-.41,.21-.41,.46v3.58h-.7v-3.7c0-.6,.44-1.1,.99-1.1h.73v.76h-.62Z" style="fill: #fff; fill-rule: evenodd;"/>
    <path d="M25.79,6.94v-.15c0-1.38-1.03-2.51-2.3-2.51s-2.29,1.12-2.29,2.51,1.03,2.51,2.29,2.51c1.07,0,1.98-.78,2.23-1.91h-.67c-.23,.72-.85,1.21-1.56,1.21-.85,0-1.56-.7-1.64-1.66h3.94Zm-3.86-.7c.23-.76,.87-1.25,1.57-1.25s1.34,.49,1.57,1.25h-3.14Z" style="fill: #fff; fill-rule: evenodd;"/>
    <path d="M38,4.26c-.83,0-1.56,.48-1.97,1.2-.41-.72-1.14-1.2-1.97-1.2s-1.56,.48-1.97,1.2c-.41-.72-1.14-1.2-1.97-1.2-1.28,0-2.32,1.14-2.32,2.53v4.12h.7v-2.3c.42,.44,.99,.72,1.62,.72,.83,0,1.56-.48,1.97-1.2,.41,.72,1.14,1.2,1.97,1.2s1.56-.48,1.97-1.2c.41,.72,1.14,1.2,1.97,1.2,1.28,0,2.32-1.13,2.32-2.53s-1.04-2.53-2.32-2.53h0Zm-7.89,4.31c-.9,0-1.63-.8-1.63-1.78s.73-1.78,1.63-1.78,1.62,.8,1.62,1.78-.73,1.78-1.62,1.78h0Zm3.95,0c-.89,0-1.62-.8-1.62-1.78s.73-1.78,1.62-1.78,1.63,.8,1.63,1.78-.73,1.78-1.63,1.78h0Zm3.95,0c-.89,0-1.62-.8-1.62-1.78s.73-1.78,1.62-1.78,1.63,.8,1.63,1.78-.73,1.78-1.63,1.78h0Z" style="fill: #fff; fill-rule: evenodd;"/>
    <path d="M42.21,3.92c-.31,0-.55-.27-.55-.61s.25-.6,.55-.6,.56,.27,.56,.6-.25,.61-.56,.61h0Zm0-1.11c-.26,0-.46,.23-.46,.5s.21,.51,.46,.51,.47-.23,.47-.51-.21-.5-.47-.5h0Zm-.24,.19h.26c.15,0,.2,.1,.2,.17,0,.11-.07,.18-.17,.19h0c.05,.02,.09,.08,.14,.17l.07,.13h-.12l-.05-.1c-.08-.15-.1-.17-.18-.17h-.06v.28h-.1v-.65h0Zm.23,.29c.07,0,.12-.03,.12-.1,0-.06-.04-.1-.11-.1h-.16v.2h.14Z" style="fill: #fff; fill-rule: evenodd;"/>
  </g>
  <path d="M41.69,11.89c-.15,0-.27-.13-.27-.3s.12-.3,.27-.3,.27,.13,.27,.3-.12,.3-.27,.3h0Zm0-.55c-.13,0-.23,.11-.23,.25s.1,.25,.23,.25,.23-.11,.23-.25-.1-.25-.23-.25h0Zm-.12,.09h.13c.07,0,.1,.05,.1,.08,0,.05-.03,.09-.08,.09h0s.04,.04,.07,.08l.04,.06h-.06l-.03-.05c-.04-.07-.05-.09-.09-.09h-.03v.14h-.05v-.32h0Zm.12,.14s.06-.02,.06-.05c0-.03-.02-.05-.05-.05h-.08v.1h.07Z" style="fill: #fff; fill-rule: evenodd;"/>
</svg>