<?xml version="1.0" encoding="UTF-8"?>
<svg id="Layer_1" data-name="Layer 1" xmlns="http://www.w3.org/2000/svg" viewBox="0 0 16 16">
  <g>
    <path d="M7.65,4.42h-2.06c-.32,0-.59,.26-.59,.59v4.48c0,.32,.26,.59,.59,.59h2.06c.32,0,.59-.26,.59-.59V5.01c0-.32-.26-.59-.59-.59Zm.14,5.07c0,.08-.06,.14-.14,.14h-2.06c-.08,0-.14-.06-.14-.14V5.01c0-.08,.06-.14,.14-.14h2.06c.08,0,.14,.06,.14,.14v4.48Z" style="fill: #021d49;"/>
    <path d="M8.46,14.1h-1.19c-.12,0-.22,.1-.22,.22s.1,.22,.22,.22h1.19c.12,0,.22-.1,.22-.22s-.1-.22-.22-.22Z" style="fill: #021d49;"/>
    <path d="M7.42,10.62h-1.93c-.12,0-.22,.1-.22,.22s.1,.22,.22,.22h1.93c.12,0,.22-.1,.22-.22s-.1-.22-.22-.22Z" style="fill: #021d49;"/>
    <path d="M5.49,11.9h.86c.12,0,.22-.1,.22-.22s-.1-.22-.22-.22h-.86c-.12,0-.22,.1-.22,.22s.1,.22,.22,.22Z" style="fill: #021d49;"/>
    <path d="M7.42,12.29h-1.93c-.12,0-.22,.1-.22,.22s.1,.22,.22,.22h1.93c.12,0,.22-.1,.22-.22s-.1-.22-.22-.22Z" style="fill: #021d49;"/>
    <path d="M13.1,6.91c0-.84-.5-1.59-1.26-1.91v-1.96c0-.67-.54-1.21-1.21-1.21H5.11c-.67,0-1.21,.54-1.21,1.21V14.12c0,.67,.54,1.21,1.21,1.21h5.52c.67,0,1.21-.54,1.21-1.21v-5.3c.76-.32,1.26-1.07,1.26-1.91Zm-4.14,0c0,1.14,.93,2.07,2.07,2.07,.03,0,.06,0,.09,0,0,0,.02,0,.03,0,.02,0,.04,0,.06,0,.01,0,.02,0,.03,0,.02,0,.03,0,.05,0,.01,0,.02,0,.04,0,.02,0,.03,0,.05,0,0,0,0,0,.01,0v4.31H4.35V3.69h7.04v1.19s0,0-.01,0c-.02,0-.03,0-.05,0-.01,0-.02,0-.04,0-.02,0-.03,0-.05,0-.01,0-.02,0-.03,0-.02,0-.04,0-.06,0,0,0-.02,0-.03,0-.03,0-.06,0-.09,0-1.14,0-2.07,.93-2.07,2.07ZM5.11,2.28h5.52c.42,0,.76,.34,.76,.76v.19H4.35v-.19c0-.42,.34-.76,.76-.76Zm5.52,12.6H5.11c-.42,0-.76-.34-.76-.76v-.41h7.04v.41c0,.42-.34,.76-.76,.76Zm.92-6.43c-.16,.05-.34,.08-.51,.08-.78,0-1.44-.56-1.59-1.3-.02-.11-.03-.21-.03-.33s.01-.22,.03-.33c.15-.74,.81-1.3,1.59-1.3,.17,0,.35,.03,.51,.08,.66,.22,1.11,.84,1.11,1.54s-.45,1.32-1.11,1.54Z" style="fill: #021d49;"/>
    <path d="M8.74,10.31v2c0,.12,.1,.22,.22,.22h1.54c.12,0,.22-.1,.22-.22v-2c0-.12-.1-.22-.22-.22h-1.54c-.12,0-.22,.1-.22,.22Zm1.54,1.78h-1.1v-.55h1.1v.55Zm-1.1-1.56h1.1v.55h-1.1v-.55Z" style="fill: #021d49;"/>
    <path d="M12.14,6.06c-.09-.09-.23-.09-.32,0l-1.29,1.22-.28-.38c-.07-.1-.21-.12-.31-.05-.1,.07-.12,.21-.05,.31l.43,.58c.04,.05,.1,.08,.16,.09,0,0,.01,0,.02,0,.06,0,.11-.02,.15-.06l1.47-1.4c.09-.09,.09-.23,0-.32Z" style="fill: #021d49;"/>
    <path d="M6.55,8.56v-.2c-.15,0-.3-.04-.42-.08-.08-.03-.13-.12-.1-.21h0c.03-.1,.13-.15,.22-.11,.11,.04,.24,.07,.38,.07,.22,0,.37-.11,.37-.28,0-.16-.12-.26-.38-.35-.37-.13-.6-.3-.6-.63,0-.3,.21-.53,.56-.59v-.2c0-.08,.06-.14,.14-.14h0c.08,0,.14,.06,.14,.14v.18c.14,0,.24,.03,.33,.05,.08,.03,.13,.12,.11,.2h0c-.03,.09-.12,.14-.21,.11-.08-.03-.19-.05-.32-.05-.24,0-.33,.13-.33,.24,0,.14,.13,.22,.42,.34,.39,.15,.57,.34,.57,.65s-.21,.56-.59,.62v.22c0,.08-.06,.14-.14,.14h0c-.08,0-.14-.06-.14-.14Z" style="fill: #021d49;"/>
  </g>
  <path d="M12.54,.67H3.46c-.81,0-1.46,.66-1.46,1.46s.66,1.46,1.46,1.46h.54s0-.07,0-.1c0-.14,.02-.28,.06-.41h-.6c-.52,0-.94-.42-.94-.94s.42-.94,.94-.94H12.54c.52,0,.94,.42,.94,.94s-.42,.94-.94,.94h-.91c.03,.1,.04,.2,.05,.3,0,.08,0,.15-.01,.22h.88c.81,0,1.46-.66,1.46-1.46s-.66-1.46-1.46-1.46Z" style="fill: #021d49;"/>
</svg>